<svg xmlns="http://www.w3.org/2000/svg" width="1080" height="1080" viewBox="0 0 1080 1080" version="1.1"><path d="M 446 460.055 C 442.975 460.523, 437.183 462.043, 433.129 463.434 C 408.047 472.040, 389.222 491.707, 381.379 517.500 C 378.977 525.401, 378.643 528.148, 378.643 540 C 378.643 551.869, 378.974 554.587, 381.388 562.500 C 389.543 589.238, 408.161 608.174, 435.370 617.403 L 444.500 620.500 540 620.500 L 635.500 620.500 644.630 617.403 C 671.836 608.175, 690.442 589.254, 698.617 562.500 C 701.047 554.549, 701.364 551.926, 701.340 540 C 701.317 528.241, 700.963 525.339, 698.599 517.500 C 690.591 490.951, 671.825 471.854, 644.667 462.618 L 635.500 459.500 543.500 459.352 C 492.900 459.271, 449.025 459.587, 446 460.055 M 534 499.317 L 534 504.635 528.483 506.374 C 517.899 509.710, 511.979 518.537, 513.396 528.869 C 514.526 537.119, 520.784 543.445, 530.453 546.115 L 534 547.094 534 557.547 C 534 563.296, 533.753 568, 533.450 568 C 531.801 568, 526.016 564.316, 522.746 561.183 L 518.991 557.586 515.987 561.043 C 511.040 566.735, 510.808 567.486, 513.095 570.394 C 515.786 573.815, 523.207 578.109, 528.929 579.557 L 533.500 580.713 533.800 586.356 L 534.100 592 540.050 592 L 546 592 546 586.579 C 546 581.275, 546.069 581.144, 549.250 580.457 C 571.819 575.586, 574.809 546.102, 553.500 538.551 C 550.750 537.577, 547.938 536.618, 547.250 536.421 C 546.367 536.168, 546 533.377, 546 526.923 L 546 517.783 548.689 518.458 C 550.168 518.829, 552.600 520.003, 554.093 521.066 C 555.587 522.130, 557.215 523, 557.712 523 C 558.209 523, 560.072 520.933, 561.853 518.407 C 564.181 515.103, 564.802 513.466, 564.062 512.575 C 562.326 510.483, 553.709 506.207, 549.750 505.473 L 546 504.777 546 499.389 L 546 494 540 494 L 534 494 534 499.317 M 529.174 520.314 C 526.290 523.385, 526.403 527.493, 529.455 530.545 C 533.334 534.425, 534 533.685, 534 525.500 C 534 517.237, 533.037 516.203, 529.174 520.314 M 546 558.974 C 546 564.586, 546.395 568, 547.045 568 C 549.471 568, 553 563.037, 553 559.627 C 553 554.769, 552.183 553.146, 548.879 551.437 L 546 549.949 546 558.974" stroke="none" fill="#f3db8b" fill-rule="evenodd"/><path d="M 0 540.001 L 0 1080.002 540.250 1079.751 L 1080.500 1079.500 1080.751 539.750 L 1081.002 -0 540.501 -0 L 0 0 0 540.001 M 0.496 540.500 C 0.496 837.500, 0.610 958.851, 0.750 810.168 C 0.890 661.485, 0.890 418.485, 0.750 270.168 C 0.610 121.851, 0.496 243.500, 0.496 540.500 M 446 460.055 C 442.975 460.523, 437.183 462.043, 433.129 463.434 C 408.047 472.040, 389.222 491.707, 381.379 517.500 C 378.977 525.401, 378.643 528.148, 378.643 540 C 378.643 551.869, 378.974 554.587, 381.388 562.500 C 389.543 589.238, 408.161 608.174, 435.370 617.403 L 444.500 620.500 540 620.500 L 635.500 620.500 644.630 617.403 C 671.836 608.175, 690.442 589.254, 698.617 562.500 C 701.047 554.549, 701.364 551.926, 701.340 540 C 701.317 528.241, 700.963 525.339, 698.599 517.500 C 690.591 490.951, 671.825 471.854, 644.667 462.618 L 635.500 459.500 543.500 459.352 C 492.900 459.271, 449.025 459.587, 446 460.055 M 534 499.317 L 534 504.635 528.483 506.374 C 517.899 509.710, 511.979 518.537, 513.396 528.869 C 514.526 537.119, 520.784 543.445, 530.453 546.115 L 534 547.094 534 557.547 C 534 563.296, 533.753 568, 533.450 568 C 531.801 568, 526.016 564.316, 522.746 561.183 L 518.991 557.586 515.987 561.043 C 511.040 566.735, 510.808 567.486, 513.095 570.394 C 515.786 573.815, 523.207 578.109, 528.929 579.557 L 533.500 580.713 533.800 586.356 L 534.100 592 540.050 592 L 546 592 546 586.579 C 546 581.275, 546.069 581.144, 549.250 580.457 C 571.819 575.586, 574.809 546.102, 553.500 538.551 C 550.750 537.577, 547.938 536.618, 547.250 536.421 C 546.367 536.168, 546 533.377, 546 526.923 L 546 517.783 548.689 518.458 C 550.168 518.829, 552.600 520.003, 554.093 521.066 C 555.587 522.130, 557.215 523, 557.712 523 C 558.209 523, 560.072 520.933, 561.853 518.407 C 564.181 515.103, 564.802 513.466, 564.062 512.575 C 562.326 510.483, 553.709 506.207, 549.750 505.473 L 546 504.777 546 499.389 L 546 494 540 494 L 534 494 534 499.317 M 529.174 520.314 C 526.290 523.385, 526.403 527.493, 529.455 530.545 C 533.334 534.425, 534 533.685, 534 525.500 C 534 517.237, 533.037 516.203, 529.174 520.314 M 546 558.974 C 546 564.586, 546.395 568, 547.045 568 C 549.471 568, 553 563.037, 553 559.627 C 553 554.769, 552.183 553.146, 548.879 551.437 L 546 549.949 546 558.974" stroke="none" fill="#04bc64" fill-rule="evenodd"/></svg>